<?xml version="1.0" encoding="UTF-8" standalone="no"?>
<!-- Created with Inkscape (http://www.inkscape.org/) -->

<svg
   width="81.919708mm"
   height="81.919708mm"
   viewBox="0 0 81.919708 81.919708"
   version="1.1"
   id="svg1"
   xmlns:inkscape="http://www.inkscape.org/namespaces/inkscape"
   xmlns:sodipodi="http://sodipodi.sourceforge.net/DTD/sodipodi-0.dtd"
   xmlns:xlink="http://www.w3.org/1999/xlink"
   xmlns="http://www.w3.org/2000/svg"
   xmlns:svg="http://www.w3.org/2000/svg">
  <sodipodi:namedview
     id="namedview1"
     pagecolor="#ffffff"
     bordercolor="#000000"
     borderopacity="0.25"
     inkscape:showpageshadow="2"
     inkscape:pageopacity="0.0"
     inkscape:pagecheckerboard="0"
     inkscape:deskcolor="#d1d1d1"
     inkscape:document-units="mm" />
  <defs
     id="defs1">
    <linearGradient
       id="linearGradient2"
       inkscape:collect="always">
      <stop
         style="stop-color:#940000;stop-opacity:1;"
         offset="0.94930869"
         id="stop2" />
      <stop
         style="stop-color:#940000;stop-opacity:0;"
         offset="1"
         id="stop3" />
    </linearGradient>
    <radialGradient
       inkscape:collect="always"
       xlink:href="#linearGradient2"
       id="radialGradient3"
       cx="91.895653"
       cy="42.257614"
       fx="91.895653"
       fy="42.257614"
       r="35.491009"
       gradientUnits="userSpaceOnUse" />
    <filter
       inkscape:collect="always"
       style="color-interpolation-filters:sRGB"
       id="filter3"
       x="-0.036294896"
       y="-0.036294896"
       width="1.0725898"
       height="1.0725898">
      <feGaussianBlur
         inkscape:collect="always"
         stdDeviation="1.0484222"
         id="feGaussianBlur3" />
    </filter>
  </defs>
  <g
     inkscape:label="Warstwa 1"
     inkscape:groupmode="layer"
     id="layer1"
     transform="translate(-50.659017,-1.2977585)">
    <circle
       style="mix-blend-mode:normal;fill:url(#radialGradient3);fill-opacity:1;stroke:#ffffff;stroke-width:0;stroke-linecap:round;stroke-linejoin:round;stroke-miterlimit:4.5;stroke-dasharray:none;stroke-opacity:1;paint-order:stroke fill markers;filter:url(#filter3)"
       id="path2"
       cx="91.895653"
       cy="42.257614"
       r="34.66346"
       transform="matrix(1.1016734,0,0,1.1016734,-9.6201228,-4.296474)"
       inkscape:export-filename="logo.svg"
       inkscape:export-xdpi="96"
       inkscape:export-ydpi="96" />
    <g
       id="g2">
      <path
         d="m 115.36153,60.829892 c 0.0365,0.0365 0.0639,0.0913 0.0822,0.16436 0.0183,0.0548 0.0274,0.10046 0.0274,0.13696 0,0.20088 -0.16436,0.30132 -0.49307,0.30132 -0.18262,0.0183 -0.73048,0 -1.64357,-0.0548 -0.89483,-0.073 -1.51573,-0.10957 -1.8627,-0.10957 -0.58438,0 -1.46095,0.0457 -2.6297,0.13696 -0.43829,0.0365 -0.74874,0.0457 -0.93136,0.0274 -0.31045,0 -0.46567,-0.10957 -0.46567,-0.32871 0,-0.0913 0.0274,-0.16435 0.0822,-0.21914 0.0548,-0.073 0.44742,-0.39263 1.17788,-0.95875 0.56612,-0.43828 0.84918,-0.8309 0.84918,-1.17788 V 25.767186 c 0,-0.34697 -0.27393,-0.7396 -0.82178,-1.17788 -0.40176,-0.31045 -0.80352,-0.630033 -1.20528,-0.958745 -0.0548,-0.07305 -0.0731,-0.182619 -0.0548,-0.328713 0.0365,-0.146094 0.18262,-0.219141 0.43828,-0.219141 0.18262,-0.01826 0.73047,0.0091 1.64357,0.08218 0.91308,0.05479 1.55225,0.08218 1.91749,0.08218 0.73047,0 1.47007,-0.02739 2.21881,-0.08218 0.76699,-0.05479 1.19614,-0.08218 1.28746,-0.08218 0.32871,0 0.49307,0.10044 0.49307,0.30132 0,0.10957 -0.0365,0.21001 -0.10958,0.30132 -0.0365,0.05479 -0.4109,0.356107 -1.1231,0.903959 -0.56612,0.43828 -0.84917,0.83091 -0.84917,1.17788 v 32.980856 c 0,0.34698 0.27392,0.73047 0.82178,1.15049 0.73047,0.56612 1.11397,0.87657 1.15049,0.93135 z"
         style="font-size:56.1003px;line-height:0;font-family:Harrington;-inkscape-font-specification:Harrington;letter-spacing:2.6297px;word-spacing:6.57427px;stroke:#ffffff;stroke-width:1.4;stroke-linecap:round;stroke-linejoin:round;stroke-miterlimit:4.5;stroke-dasharray:none;stroke-opacity:1;paint-order:stroke fill markers"
         id="path1" />
      <path
         d="m 94.864109,63.651335 c -2.48361,0 -5.79812,-0.75787 -9.94355,-2.2736 -3.03147,-1.11397 -6.76601,-2.73928 -11.20363,-4.87591 -3.03146,-1.49747 -6.06292,-2.9858 -9.09438,-4.46501 -0.58438,-0.29219 -1.22354,-0.56611 -1.91749,-0.82178 -0.712211,-0.23741 -1.11397,-0.3835 -1.205281,-0.43829 -0.10957,-0.0548 -0.16436,-0.12785 -0.16436,-0.21914 0,-0.0913 0.073,-0.19175 0.21914,-0.30132 0.12783,-0.0913 1.004401,-0.5022 2.629701,-1.23267 2.11837,-0.96787 5.04027,-2.22794 8.76568,-3.7802 3.72541,-1.53399 6.75687,-2.75753 9.09438,-3.67062 -1.88097,-0.84005 -3.76193,-1.68922 -5.6429,-2.54752 -2.26447,-1.04093 -4.5198,-2.08185 -6.766,-3.12277 -2.68449,-1.22355 -4.57459,-2.07272 -5.6703,-2.54753 -0.14609,-0.0548 -0.60264,-0.21002 -1.36963,-0.465677 -0.456551,-0.146094 -0.785261,-0.283057 -0.986141,-0.41089 -0.12783,-0.05479 -0.19175,-0.136965 -0.19175,-0.246535 0,-0.07305 0.0457,-0.136964 0.13696,-0.191749 0.0548,-0.03652 0.21916,-0.100436 0.49307,-0.191749 0.529591,-0.182618 0.986141,-0.356105 1.369641,-0.520462 3.0132,-1.223541 6.03553,-2.437952 9.06699,-3.643232 5.00374,-1.990538 9.22222,-3.5154 12.65544,-4.574585 4.85764,-1.497468 8.59218,-2.246203 11.20362,-2.246203 1.7714,0 3.33279,0.392629 4.684161,1.177888 1.58878,0.91309 2.38317,2.145762 2.38317,3.698016 0,0.986139 -0.27393,1.780528 -0.82179,2.383167 -0.4748,0.529593 -0.96787,0.757866 -1.4792,0.684819 -0.18262,-0.09131 -0.28306,-0.146095 -0.30132,-0.164357 -0.0913,-0.09131 -0.0822,-0.200879 0.0274,-0.328712 0.14609,-0.146095 0.27393,-0.365237 0.3835,-0.657426 0.10957,-0.273927 0.16435,-0.657425 0.16435,-1.150494 0,-0.785258 -0.48393,-1.387898 -1.451811,-1.80792 -0.767,-0.328713 -1.68922,-0.493069 -2.76667,-0.493069 -1.42442,0 -2.9858,0.191749 -4.68415,0.575247 -1.36964,0.310451 -2.97668,0.776127 -4.82112,1.397029 -1.58878,0.566116 -3.16843,1.132232 -4.73894,1.698349 -2.02707,0.730473 -4.07239,1.497469 -6.13597,2.300989 -1.47921,0.584378 -3.09538,1.232672 -4.84852,1.944883 -0.96787,0.383498 -1.92662,0.776128 -2.87623,1.177893 l 15.61385,7.01253 c 2.19142,-0.8583 4.00847,-1.4792 5.45115,-1.8627 1.80792,-0.47481 3.5154,-0.71221 5.12244,-0.71221 1.97228,0 3.5154,0.41089 4.62937,1.23267 1.113971,0.84005 1.670961,2.01793 1.670961,3.53366 0,1.36964 -0.5022,2.44709 -1.5066,3.23234 -0.986141,0.80352 -2.310121,1.20528 -3.971951,1.20528 -1.02266,0 -2.52013,-0.33784 -4.4924,-1.01353 -1.95401,-0.65743 -3.67062,-1.37877 -5.14983,-2.16402 l -17.91485,7.61517 c 1.91749,1.04093 4.18196,2.1549 6.7934,3.34192 3.52453,1.58877 6.73861,2.84884 9.64224,3.78019 3.79846,1.20528 6.90297,1.80792 9.31352,1.80792 1.57052,0 2.9219,-0.31045 4.05413,-0.93135 1.31485,-0.71221 1.972271,-1.69835 1.972271,-2.95841 0,-0.87657 -0.19175,-1.51573 -0.575241,-1.91749 -0.3835,-0.40176 -1.05006,-0.60264 -1.99967,-0.60264 -0.25567,0 -0.3835,-0.0548 -0.3835,-0.16436 0,-0.0365 0.0365,-0.12784 0.10957,-0.27393 0.42002,-0.84004 1.16875,-1.26006 2.2462,-1.26006 1.223541,0 2.164031,0.56612 2.821461,1.69835 0.52959,0.91309 0.79438,1.93575 0.79438,3.06798 0,2.02706 -0.83091,3.66149 -2.49273,4.9033 -1.588781,1.18702 -3.570191,1.78053 -5.944231,1.78053 z m 0.87657,-18.79141 c 0.91309,0 1.68922,-0.15523 2.32838,-0.46568 0.78526,-0.3835 1.17789,-0.94049 1.17789,-1.67096 0,-0.71221 -0.32871,-1.25093 -0.98614,-1.61617 -0.65743,-0.34697 -1.42442,-0.52046 -2.30099,-0.52046 -1.2418,0 -2.52013,0.21001 -3.83498,0.63003 -1.05919,0.34698 -2.15489,0.83092 -3.28712,1.45182 1.31485,0.6209 2.43795,1.09571 3.3693,1.42442 1.44269,0.51133 2.62057,0.767 3.53366,0.767 z"
         style="font-size:56.1003px;line-height:0;font-family:Harrington;-inkscape-font-specification:Harrington;letter-spacing:2.6297px;word-spacing:6.57427px;stroke:#ffffff;stroke-width:1.4;stroke-linecap:round;stroke-linejoin:round;stroke-miterlimit:4.5;stroke-dasharray:none;stroke-opacity:1;paint-order:stroke fill markers"
         id="path1-1" />
    </g>
  </g>
</svg>
